<?xml version="1.0" encoding="utf-8"?>
<!-- Generator: Adobe Illustrator 18.0.0, SVG Export Plug-In . SVG Version: 6.00 Build 0)  -->
<!DOCTYPE svg PUBLIC "-//W3C//DTD SVG 1.1//EN" "http://www.w3.org/Graphics/SVG/1.1/DTD/svg11.dtd">
<svg version="1.1" id="Capa_1" xmlns="http://www.w3.org/2000/svg" xmlns:xlink="http://www.w3.org/1999/xlink" x="0px" y="0px"
	 viewBox="0 0 180.7 180.7" enable-background="new 0 0 180.7 180.7" xml:space="preserve">
<g>
	<g>
		<path fill="#fff" d="M-603.8,135h-56.9V94.8h-20.1l49.1-49.1l49.1,49.1h-21.3V135z M-654.9,129.2h45.4V89.1h13.1l-35.2-35.2
			l-35.2,35.2h11.9V129.2z"/>
		<path fill="#fff" d="M-603.3,135.5h-57.9V95.3H-682l50.3-50.3l50.3,50.3h-22V135.5z M-660.2,134.5h55.9V94.3h20.6l-47.9-47.9
			l-47.9,47.9h19.4V134.5z M-609.1,129.7h-46.4V89.6H-668l36.4-36.4l36.4,36.4h-13.8V129.7z M-654.4,128.7h44.4V88.6h12.4l-34-34
			l-34,34h11.2V128.7z"/>
	</g>
</g>
<g>
	<g>
		<g>
			<path fill="#fff" d="M-343.8,130.5h-77.8v-2.9c0-16,9.6-30,24-35.9c-5.3-4.4-8.5-11-8.5-18.1c0-12.9,10.5-23.5,23.5-23.5
				c12.9,0,23.5,10.5,23.5,23.5c0,7.1-3.2,13.7-8.5,18.1c14.4,5.9,24,19.9,24,35.9V130.5z M-415.6,124.8h66
				c-1.2-14.3-11.4-26.1-25.6-29.4l-7.4-1.7l-7.4,1.7C-404.2,98.6-414.4,110.5-415.6,124.8z M-382.6,55.9c-9.8,0-17.7,7.9-17.7,17.7
				c0,7.1,4.2,13.5,10.8,16.3l6.9,2.9l6.9-2.9c6.5-2.8,10.8-9.2,10.8-16.3C-364.9,63.9-372.9,55.9-382.6,55.9z"/>
			<path fill="#fff" d="M-343.3,131H-422v-3.4c0-15.8,9.2-29.8,23.5-36.1c-5.2-4.5-8.1-11-8.1-18c0-13.2,10.7-24,24-24
				s24,10.7,24,24c0,6.9-2.9,13.4-8.1,18c14.3,6.2,23.5,20.3,23.5,36V131z M-421,130h76.8v-2.4c0-15.6-9.3-29.5-23.7-35.4l-0.8-0.3
				l0.6-0.5c5.3-4.4,8.4-10.8,8.4-17.7c0-12.7-10.3-23-23-23c-12.7,0-23,10.3-23,23c0,6.9,3,13.3,8.3,17.7l0.6,0.5l-0.8,0.3
				c-14.4,5.9-23.7,19.8-23.7,35.4V130z M-349.1,125.3h-67.1l0-0.5c1.2-14.6,11.7-26.6,26-29.8l7.2-1.6l-6.8-2.9
				c-6.7-2.9-11.1-9.4-11.1-16.7c0-10,8.2-18.2,18.2-18.2s18.2,8.2,18.2,18.2c0,7.3-4.3,13.9-11.1,16.7l-6.7,2.9l7.1,1.6
				c14.3,3.3,24.7,15.3,26,29.8L-349.1,125.3z M-415.1,124.3h64.9c-1.4-13.9-11.5-25.3-25.2-28.4l-7.3-1.7l-7.3,1.7
				C-403.6,99-413.7,110.4-415.1,124.3z M-382.6,56.4c-9.5,0-17.2,7.7-17.2,17.2c0,6.9,4.1,13.1,10.5,15.8l6.7,2.9l6.7-2.9
				c6.4-2.7,10.5-8.9,10.5-15.8C-365.4,64.2-373.2,56.4-382.6,56.4z"/>
		</g>
	</g>
</g>
<g>
	<g>
		<g>
			<rect x="-192.7" y="119.5" fill="#fff" width="76.2" height="8.5"/>
		</g>
	</g>
	<g>
		<g>
			<rect x="-132.2" y="52.7" fill="#fff" width="14.4" height="60.6"/>
		</g>
	</g>
	<g>
		<g>
			<path fill="#fff" d="M-145.1,111.7h-17.1V66.4h17.1V111.7z M-159.5,109h11.6V69.1h-11.6V109z"/>
			<path fill="#fff" d="M-143.6,113.2h-20.1V64.9h20.1V113.2z M-158,107.5h8.6V70.6h-8.6V107.5z"/>
		</g>
	</g>
	<g>
		<g>
			<rect x="-189.6" y="87.9" fill="#fff" width="14.4" height="25.4"/>
		</g>
	</g>
</g>
<g>
	<g>
		<g>
			<g>
				<path fill="#fff" d="M348.2,91h-23.8c-1.3,0-2.3-1-2.3-2.3s1-2.3,2.3-2.3h23.8c1.3,0,2.3,1,2.3,2.3S349.5,91,348.2,91z"/>
				<path fill="#fff" d="M348.2,92h-23.8c-1.8,0-3.3-1.5-3.3-3.3s1.5-3.3,3.3-3.3h23.8c1.8,0,3.3,1.5,3.3,3.3S350.1,92,348.2,92z
					 M324.5,87.4c-0.7,0-1.3,0.6-1.3,1.3s0.6,1.3,1.3,1.3h23.8c0.7,0,1.3-0.6,1.3-1.3s-0.6-1.3-1.3-1.3H324.5z"/>
			</g>
		</g>
		<g>
			<g>
				<g>
					<path fill="#fff" d="M322.9,106.5c-0.6-0.9-0.3-2,0.6-2.6l23.9-15.2l-23.9-15.2c-0.9-0.6-1.1-1.7-0.6-2.6
						c0.6-0.9,1.7-1.1,2.6-0.6l26.4,16.8c0.5,0.3,0.9,0.9,0.9,1.6s-0.3,1.2-0.9,1.6l-26.4,16.8c-0.3,0.2-0.7,0.3-1,0.3
						C323.8,107.4,323.2,107.1,322.9,106.5z"/>
					<path fill="#fff" d="M324.5,108.4c-1,0-1.9-0.5-2.4-1.3c-0.4-0.6-0.5-1.4-0.4-2.1c0.2-0.7,0.6-1.4,1.3-1.8l22.6-14.4
						l-22.6-14.4c-0.6-0.4-1.1-1-1.3-1.8c-0.2-0.7,0-1.5,0.4-2.1c0.5-0.8,1.4-1.3,2.4-1.3c0.5,0,1.1,0.2,1.5,0.4l26.4,16.8
						c0.8,0.5,1.3,1.4,1.3,2.4s-0.5,1.9-1.3,2.4L326,107.9C325.5,108.2,325,108.4,324.5,108.4z M324.5,71.1c-0.3,0-0.6,0.1-0.7,0.4
						c-0.1,0.2-0.2,0.4-0.1,0.6c0,0.2,0.2,0.4,0.4,0.5l25.3,16.1L324,104.8c-0.2,0.1-0.3,0.3-0.4,0.5c0,0.2,0,0.4,0.1,0.6
						c0.2,0.4,0.8,0.5,1.2,0.3l26.4-16.8c0.2-0.2,0.4-0.4,0.4-0.7s-0.2-0.6-0.4-0.7l-26.4-16.8C324.8,71.1,324.6,71.1,324.5,71.1z"
						/>
				</g>
			</g>
		</g>
	</g>
	<g>
		<g>
			<polygon fill="#fff" points="336.6,108.8 336.6,124.3 293.5,124.3 293.5,56.4 336.6,56.4 336.6,67.8 339.3,67.8 339.3,53.7 
				290.8,53.7 290.8,127 339.3,127 339.3,108.8 			"/>
			<path fill="#fff" d="M340.3,128h-50.5V52.7h50.5v16.1h-4.7V57.4h-41v65.8h41v-15.5h4.7V128z M291.8,126h46.5v-16.2h-0.7v15.5
				h-45V55.4h45v11.4h0.7V54.7h-46.5V126z"/>
		</g>
		<g>
			<path fill="#fff" d="M340.1,127.8h-50V52.9h50v15.7h-4.3V57.2h-41.5v66.3h41.5V108h4.3V127.8z M291.6,126.2h47v-16.7h-1.2V125
				h-44.6V55.7h44.6v11.4h1.2V54.5h-47V126.2z"/>
			<polygon fill="#fff" points="341.1,128.8 289,128.8 289,51.9 341.1,51.9 341.1,69.6 334.8,69.6 334.8,58.2 295.3,58.2 
				295.3,122.5 334.8,122.5 334.8,107 341.1,107 			"/>
		</g>
	</g>
</g>
<g>
	<g>
		<g>
			<path fill="#fff" d="M90.4,133.1c-6.9,0-13-4.3-15.4-10.6H47.5l1-11.4l2.4-0.8c7.7-2.5,9.3-18.6,9.2-28.6H60l0-2.5
				c0-0.1,0-0.1,0-0.2c0-0.1,0-0.1,0-0.1v-2.2l0.1,0c0.4-6.3,2.5-11.3,6.2-15c3.8-3.8,9.2-6.1,16.3-6.9c0.3-4,3.7-7.1,7.8-7.1
				c4.1,0,7.4,3.1,7.8,7.1c6.8,0.8,12.3,3.2,16.2,7.1c3.7,3.7,5.9,8.7,6.3,14.7l0.1,1.2l0.1,1.4c0,0,0,0.1,0,0.1l-0.1,2.2l0,0.3
				c-0.2,10,1.5,26.1,9.2,28.6l2.4,0.8l1,11.4h-27.5C103.3,128.8,97.3,133.1,90.4,133.1z M53,117.5h25.8l0.5,1.9
				c1.2,5.1,5.8,8.7,11.1,8.7c5.3,0,9.8-3.6,11.1-8.7l0.5-1.9h25.8l-0.2-2.7c-12.7-5.1-12-30.6-11.8-35.7l0-0.1l0-0.1
				c-0.1-5.7-1.7-10.3-5-13.5c-3.5-3.5-8.8-5.5-15.6-5.9L92,59.3l1-3.1c0.1-0.3,0.2-0.6,0.2-0.8c0-1.5-1.2-2.8-2.8-2.8
				s-2.8,1.2-2.8,2.8c0,0.2,0.1,0.5,0.2,0.9l1,3.1l-3.3,0.2c-7.2,0.4-12.3,2.3-15.7,5.6c-3.2,3.1-4.8,7.8-4.8,13.7l0,0.1l0,0.1
				c0.3,5.1,1,30.6-11.8,35.7L53,117.5z"/>
			<path fill="#fff" d="M90.4,134.1c-7,0-13.3-4.2-16-10.6H46.4l1.2-13.1l3-1c6.4-2.1,8.6-15.4,8.5-26.6h0l-0.1-1l0-2.5
				c0-0.1,0-0.2,0-0.3l0-0.1v-3.1l0.2,0c0.6-6.1,2.8-11.1,6.5-14.8c3.9-3.9,9.1-6.2,16.1-7.1c0.7-4.1,4.4-7.2,8.7-7.2
				c4.3,0,7.9,3.1,8.6,7.2c6.7,0.9,12.1,3.4,16,7.3c3.9,3.9,6.1,9.1,6.6,15.4l0.1,2.7l-0.1,2.6c-0.2,11.4,1.9,25.5,8.5,27.6l3,1
				l1.2,13.1h-27.9C103.7,129.9,97.3,134.1,90.4,134.1z M48.6,121.5h27.1l0.2,0.6c2.3,6.1,7.9,10,14.4,10c6.5,0,12.1-3.9,14.4-10
				l0.2-0.6h27.1l-0.9-9.6l-1.7-0.6c-9.8-3.2-9.9-25.2-9.9-29.6l0.1-2.5l-0.1-2.6c-0.5-5.8-2.5-10.5-6-14.1c-3.8-3.7-9-6-15.6-6.8
				l-0.8-0.1l-0.1-0.8c-0.3-3.5-3.3-6.2-6.8-6.2c-3.5,0-6.5,2.7-6.8,6.2l-0.1,0.8l-0.8,0.1c-6.9,0.8-12,2.9-15.7,6.6
				c-3.5,3.5-5.5,8.3-5.9,14.4L61,77.5l0,3.3l0.1,0.9c0.1,4.4,0,26.4-9.8,29.6l-1.7,0.6L48.6,121.5z M90.4,129.1
				c-5.7,0-10.7-3.9-12-9.5l-0.3-1.2H51.9l0.4-4.4l0.6-0.2C65,109,64.3,84.1,64,79.1l0-0.2l0-0.1c0.1-6.2,1.8-11.1,5.1-14.4
				c3.6-3.5,8.9-5.5,16.3-5.9l2-0.1l-0.6-1.9c-0.1-0.4-0.2-0.8-0.2-1.2c0-2.1,1.7-3.8,3.8-3.8s3.8,1.7,3.8,3.8
				c0,0.3-0.1,0.7-0.2,1.1l-0.6,1.8l1.9,0.1c7.1,0.4,12.5,2.5,16.2,6.2c3.4,3.4,5.2,8.2,5.3,14.2l0,0.2c-0.3,5-1,29.9,11.1,34.7
				l0.6,0.2l0.4,4.4h-26.1l-0.3,1.2C101,125.2,96.1,129.1,90.4,129.1z M54.1,116.5h25.5l0.6,2.7c1.1,4.7,5.3,8,10.1,8
				c4.8,0,9-3.3,10.1-8l0.6-2.7h25.5l-0.1-1c-12.8-5.9-12.1-31.3-11.8-36.4l0-0.1c-0.1-5.5-1.6-9.8-4.7-12.8
				c-3.3-3.3-8.4-5.2-14.9-5.6l-4.5-0.3l1.4-4.3c0.1-0.2,0.1-0.4,0.1-0.5c0-1-0.8-1.8-1.8-1.8s-1.8,0.8-1.8,1.8c0,0.1,0,0.3,0.1,0.5
				l1.4,4.3l-4.5,0.3c-6.9,0.4-11.8,2.2-15,5.3c-3,3-4.5,7.3-4.6,13l0,0.1c0.3,5.1,1,30.6-11.8,36.5L54.1,116.5z"/>
		</g>
	</g>
</g>
<g>
	<g>
		<path fill="#fff" d="M493.6,58.1v64.4h69.5V58.1H493.6z M497.4,118.8V77h61.9v41.7H497.4z"/>
		<path fill="#fff" d="M564.1,123.6h-71.5V57.1h71.5V123.6z M494.6,121.6h67.5V59.1h-67.5V121.6z M560.3,119.8h-63.9V76h63.9
			V119.8z M498.4,117.8h59.9V78h-59.9V117.8z"/>
	</g>
	<g>
		<rect x="534.2" y="94.7" fill="#fff" width="16.8" height="16.8"/>
		<path fill="#fff" d="M552,112.4h-18.8V93.7H552V112.4z M535.2,110.4H550V95.7h-14.8V110.4z"/>
	</g>
</g>
<g>
	<g>
		<g>
			<g>
				<g>
					<path fill="#fff" d="M-845.4,80.8h-62.6c-0.9,0-1.7-0.8-1.7-1.7c0-0.9,0.8-1.7,1.7-1.7h62.6c0.9,0,1.7,0.8,1.7,1.7
						C-843.7,80.1-844.4,80.8-845.4,80.8z"/>
				</g>
				<g>
					<path fill="#fff" d="M-845.4,81.9h-62.6c-1.5,0-2.8-1.2-2.8-2.8c0-1.5,1.2-2.8,2.8-2.8h62.6c1.5,0,2.8,1.2,2.8,2.8
						C-842.6,80.6-843.8,81.9-845.4,81.9z M-907.9,78.5c-0.3,0-0.6,0.3-0.6,0.6s0.3,0.6,0.6,0.6h62.6c0.3,0,0.6-0.3,0.6-0.6
						s-0.3-0.6-0.6-0.6H-907.9z"/>
				</g>
			</g>
		</g>
		<g>
			<g>
				<g>
					<path fill="#fff" d="M-829.4,98h-94.4c-0.9,0-1.7-0.8-1.7-1.7c0-0.9,0.8-1.7,1.7-1.7h94.4c0.9,0,1.7,0.8,1.7,1.7
						C-827.7,97.2-828.5,98-829.4,98z"/>
				</g>
				<g>
					<path fill="#fff" d="M-829.4,99.1h-94.4c-1.5,0-2.8-1.2-2.8-2.8c0-1.5,1.2-2.8,2.8-2.8h94.4c1.5,0,2.8,1.2,2.8,2.8
						C-826.7,97.8-827.9,99.1-829.4,99.1z M-923.9,95.7c-0.3,0-0.6,0.3-0.6,0.6s0.3,0.6,0.6,0.6h94.4c0.3,0,0.6-0.3,0.6-0.6
						s-0.3-0.6-0.6-0.6H-923.9z"/>
				</g>
			</g>
		</g>
		<g>
			<g>
				<g>
					<path fill="#fff" d="M-876.6,143.3c-0.4,0-0.8-0.2-1.2-0.5L-925,97.5c-0.7-0.6-0.7-1.7,0-2.4c0.7-0.7,1.7-0.7,2.4,0
						l47.2,45.3c0.7,0.6,0.7,1.7,0,2.4C-875.8,143.1-876.2,143.3-876.6,143.3z"/>
				</g>
				<g>
					<path fill="#fff" d="M-876.6,144.4c-0.7,0-1.4-0.3-1.9-0.8l-47.2-45.3c-1.1-1.1-1.1-2.8-0.1-3.9c1-1.1,2.8-1.1,3.9-0.1
						l47.2,45.3c1.1,1.1,1.1,2.8,0.1,3.9C-875.2,144.1-875.9,144.4-876.6,144.4z M-923.9,95.7c-0.2,0-0.3,0.1-0.5,0.2
						c-0.2,0.3-0.2,0.7,0,0.9l47.2,45.3c0.4,0.4,0.7,0.2,0.9,0c0.2-0.3,0.2-0.7,0-0.9l-47.2-45.3C-923.5,95.7-923.7,95.7-923.9,95.7
						z"/>
				</g>
			</g>
		</g>
		<g>
			<g>
				<g>
					<path fill="#fff" d="M-876.6,143.3c-0.4,0-0.9-0.2-1.2-0.5c-0.6-0.7-0.6-1.7,0-2.4l47.2-45.3c0.7-0.7,1.7-0.6,2.4,0
						c0.6,0.7,0.6,1.7,0,2.4l-47.2,45.3C-875.8,143.2-876.2,143.3-876.6,143.3z"/>
				</g>
				<g>
					<path fill="#fff" d="M-876.6,144.4c-0.8,0-1.5-0.3-2-0.8c-0.5-0.5-0.8-1.2-0.8-2c0-0.7,0.3-1.4,0.8-1.9l47.2-45.3
						c1.1-1,2.9-1,3.9,0.1c1.1,1.1,1,2.8-0.1,3.9l-47.2,45.3C-875.2,144.1-875.9,144.4-876.6,144.4z M-829.4,95.7
						c-0.2,0-0.3,0.1-0.4,0.2l-47.2,45.3c-0.1,0.1-0.2,0.3-0.2,0.4c0,0.2,0.1,0.3,0.2,0.4c0.1,0.1,0.3,0.2,0.5,0.2
						c0.1,0,0.3,0,0.4-0.2l47.2-45.3c0.3-0.2,0.3-0.6,0-0.9C-829.1,95.7-829.2,95.7-829.4,95.7z"/>
				</g>
			</g>
		</g>
		<g>
			<g>
				<g>
					<path fill="#fff" d="M-876.6,143.3c-0.7,0-1.4-0.4-1.6-1.1l-15.5-45.3c-0.3-0.9,0.2-1.9,1.1-2.2c0.9-0.3,1.9,0.2,2.2,1.1
						l15.5,45.3c0.3,0.9-0.2,1.9-1.1,2.2C-876.3,143.3-876.5,143.3-876.6,143.3z"/>
				</g>
				<g>
					<path fill="#fff" d="M-876.6,144.4c-1.2,0-2.2-0.8-2.6-1.9l-15.5-45.3c-0.5-1.4,0.3-3,1.7-3.5c0.3-0.1,0.6-0.2,0.9-0.2
						c1.2,0,2.2,0.8,2.6,1.9l15.5,45.3c0.2,0.7,0.2,1.4-0.1,2.1c-0.3,0.7-0.9,1.2-1.6,1.4C-876,144.3-876.3,144.4-876.6,144.4z
						 M-892.2,95.7c-0.1,0-0.1,0-0.2,0c-0.2,0.1-0.3,0.2-0.4,0.3s-0.1,0.3,0,0.5l15.5,45.3c0.1,0.3,0.5,0.5,0.8,0.4
						c0.3-0.1,0.5-0.5,0.4-0.8l-15.5-45.3C-891.7,95.8-891.9,95.7-892.2,95.7z"/>
				</g>
			</g>
		</g>
		<g>
			<g>
				<g>
					<path fill="#fff" d="M-876.6,143.3c-0.2,0-0.4,0-0.5-0.1c-0.9-0.3-1.4-1.3-1.1-2.2l15.5-45.3c0.3-0.9,1.3-1.4,2.2-1.1
						c0.9,0.3,1.4,1.3,1.1,2.2l-15.5,45.3C-875.3,142.9-875.9,143.3-876.6,143.3z"/>
				</g>
				<g>
					<path fill="#fff" d="M-876.6,144.4c-0.3,0-0.6-0.1-0.9-0.2c-0.7-0.2-1.3-0.7-1.6-1.4c-0.3-0.7-0.4-1.4-0.1-2.1l15.5-45.3
						c0.4-1.1,1.4-1.9,2.6-1.9c0.3,0,0.6,0.1,0.9,0.2c1.4,0.5,2.2,2.1,1.7,3.5l-15.5,45.3C-874.4,143.6-875.5,144.4-876.6,144.4z
						 M-861.1,95.7c-0.3,0-0.5,0.2-0.6,0.4l-15.5,45.3c-0.1,0.2,0,0.3,0,0.5s0.2,0.3,0.4,0.3c0.4,0.1,0.7-0.1,0.8-0.4l15.5-45.3
						c0.1-0.3-0.1-0.7-0.4-0.8C-861,95.7-861,95.7-861.1,95.7z"/>
				</g>
			</g>
		</g>
		<g>
			<g>
				<g>
					<path fill="#fff" d="M-923.9,98c-0.4,0-0.8-0.1-1.2-0.5c-0.7-0.6-0.7-1.7-0.1-2.4l15.9-17.2c0.6-0.7,1.7-0.7,2.4-0.1
						c0.7,0.6,0.7,1.7,0.1,2.4l-15.9,17.2C-923,97.8-923.4,98-923.9,98z"/>
				</g>
				<g>
					<path fill="#fff" d="M-923.9,99.1c-0.7,0-1.4-0.3-1.9-0.7c-1.1-1-1.2-2.8-0.1-3.9l15.9-17.2c1-1.1,2.8-1.1,3.9-0.1
						c1.1,1,1.2,2.8,0.1,3.9l-15.9,17.2C-922.4,98.7-923.1,99.1-923.9,99.1z M-907.9,78.5c-0.1,0-0.3,0-0.5,0.2l-15.9,17.2
						c-0.2,0.3-0.2,0.7,0,0.9c0.1,0.1,0.3,0.2,0.4,0.2c0.1,0,0.3,0,0.5-0.2l15.9-17.2c0.2-0.3,0.2-0.7,0-0.9
						C-907.6,78.6-907.8,78.5-907.9,78.5z"/>
				</g>
			</g>
		</g>
		<g>
			<g>
				<g>
					<path fill="#fff" d="M-829.4,98c-0.5,0-0.9-0.2-1.2-0.5l-15.9-17.2c-0.6-0.7-0.6-1.8,0.1-2.4c0.7-0.6,1.8-0.6,2.4,0.1
						l15.9,17.2c0.6,0.7,0.6,1.8-0.1,2.4C-828.6,97.8-829,98-829.4,98z"/>
				</g>
				<g>
					<path fill="#fff" d="M-829.4,99.1c-0.8,0-1.5-0.3-2-0.9L-847.4,81c-1-1.1-1-2.9,0.1-3.9c1.1-1,2.9-0.9,3.9,0.1l15.9,17.2
						c1,1.1,1,2.9-0.1,3.9C-828,98.8-828.7,99.1-829.4,99.1z M-845.4,78.5c-0.2,0-0.3,0.1-0.4,0.2c-0.3,0.2-0.3,0.6,0,0.9l15.9,17.2
						c0.2,0.2,0.4,0.2,0.5,0.2c0.1,0,0.3,0,0.4-0.2c0.3-0.2,0.3-0.6,0-0.9l-15.9-17.2C-845.1,78.5-845.3,78.5-845.4,78.5z"/>
				</g>
			</g>
		</g>
		<g>
			<g>
				<g>
					<path fill="#fff" d="M-892.2,98c-0.5,0-0.9-0.2-1.3-0.5l-15.7-17.2c-0.6-0.7-0.6-1.8,0.1-2.4c0.7-0.6,1.8-0.6,2.4,0.1
						l15.7,17.2c0.6,0.7,0.6,1.8-0.1,2.4C-891.4,97.8-891.8,98-892.2,98z"/>
				</g>
				<g>
					<path fill="#fff" d="M-892.2,99.1c-0.8,0-1.5-0.3-2-0.9L-910,81c-0.5-0.5-0.8-1.3-0.7-2c0-0.7,0.4-1.4,0.9-1.9
						c1.1-1,2.9-0.9,3.9,0.2l15.7,17.2c0.5,0.5,0.8,1.3,0.7,2c0,0.7-0.4,1.4-0.9,1.9C-890.8,98.8-891.5,99.1-892.2,99.1z
						 M-907.9,78.5c-0.2,0-0.3,0.1-0.4,0.2c-0.1,0.1-0.2,0.3-0.2,0.4c0,0.2,0.1,0.3,0.2,0.5l15.7,17.2c0.2,0.2,0.5,0.4,0.9,0
						c0.1-0.1,0.2-0.3,0.2-0.4c0-0.2-0.1-0.3-0.2-0.5l-15.7-17.2C-907.6,78.5-907.8,78.5-907.9,78.5z"/>
				</g>
			</g>
		</g>
		<g>
			<g>
				<g>
					<path fill="#fff" d="M-861.1,98c-0.4,0-0.8-0.1-1.1-0.4c-0.7-0.6-0.7-1.7-0.1-2.4l15.7-17.2c0.6-0.7,1.7-0.7,2.4-0.1
						c0.7,0.6,0.7,1.7,0.1,2.4l-15.7,17.2C-860.2,97.8-860.7,98-861.1,98z"/>
				</g>
				<g>
					<path fill="#fff" d="M-861.1,99.1c-0.7,0-1.4-0.3-1.9-0.7c-0.5-0.5-0.9-1.2-0.9-1.9c0-0.7,0.2-1.4,0.7-2l15.7-17.2
						c1-1.1,2.8-1.2,3.9-0.2c0.5,0.5,0.9,1.2,0.9,1.9c0,0.7-0.2,1.4-0.7,2l-15.7,17.2C-859.6,98.7-860.3,99.1-861.1,99.1z
						 M-845.4,78.5c-0.1,0-0.3,0-0.5,0.2l-15.7,17.2c-0.1,0.1-0.2,0.3-0.2,0.5c0,0.2,0.1,0.3,0.2,0.4c0.4,0.4,0.7,0.2,0.9,0
						l15.7-17.2c0.1-0.1,0.2-0.3,0.2-0.5s-0.1-0.3-0.2-0.4C-845.1,78.6-845.2,78.5-845.4,78.5z"/>
				</g>
			</g>
		</g>
		<g>
			<g>
				<g>
					<path fill="#fff" d="M-892.2,98c-0.4,0-0.8-0.1-1.1-0.4c-0.7-0.6-0.7-1.7-0.1-2.4l15.7-17.2c0.6-0.7,1.7-0.7,2.4-0.1
						c0.7,0.6,0.7,1.7,0.1,2.4l-15.7,17.2C-891.3,97.8-891.7,98-892.2,98z"/>
				</g>
				<g>
					<path fill="#fff" d="M-892.2,99.1c-0.7,0-1.4-0.3-1.9-0.7c-1.1-1-1.2-2.8-0.2-3.9l15.8-17.2c1-1.1,2.8-1.2,3.9-0.2
						c1.1,1,1.2,2.8,0.2,3.9l-15.8,17.2C-890.7,98.7-891.4,99.1-892.2,99.1z M-876.4,78.5c-0.1,0-0.3,0-0.5,0.2l-15.7,17.2
						c-0.2,0.3-0.2,0.7,0,0.9c0.4,0.3,0.7,0.2,0.9,0l15.7-17.2c0.2-0.3,0.2-0.7,0-0.9C-876.1,78.6-876.3,78.5-876.4,78.5z"/>
				</g>
			</g>
		</g>
		<g>
			<g>
				<g>
					<path fill="#fff" d="M-861.1,98c-0.5,0-0.9-0.2-1.3-0.5l-15.7-17.2c-0.6-0.7-0.6-1.8,0.1-2.4c0.7-0.6,1.8-0.6,2.4,0.1
						l15.7,17.2c0.6,0.7,0.6,1.8-0.1,2.4C-860.3,97.8-860.7,98-861.1,98z"/>
				</g>
				<g>
					<path fill="#fff" d="M-861.1,99.1c-0.8,0-1.5-0.3-2-0.9L-878.9,81c-0.5-0.5-0.8-1.3-0.7-2c0-0.7,0.4-1.4,0.9-1.9
						c1.1-1,2.9-0.9,3.9,0.2l15.7,17.2c0.5,0.5,0.8,1.3,0.7,2c0,0.7-0.4,1.4-0.9,1.9C-859.8,98.8-860.4,99.1-861.1,99.1z
						 M-876.9,78.5c-0.2,0-0.3,0.1-0.4,0.2c-0.1,0.1-0.2,0.3-0.2,0.4c0,0.2,0.1,0.3,0.2,0.5l15.7,17.2c0.2,0.3,0.6,0.3,0.9,0
						c0.1-0.1,0.2-0.3,0.2-0.4c0-0.2-0.1-0.3-0.2-0.5l-15.7-17.2C-876.6,78.5-876.8,78.5-876.9,78.5z"/>
				</g>
			</g>
		</g>
	</g>
	<g>
		<g>
			<path fill="#fff" d="M-855.5,73.3h-42.9l-5.1-16.4c-2.4-0.2-4.6-1.6-5.7-3.8c-0.8-1.7-1-3.5-0.4-5.3c0.6-1.8,1.8-3.2,3.5-4
				c1-0.5,2.1-0.8,3.2-0.8c2.6,0,5,1.5,6.2,3.8c1,2,1,4.2,0.1,6.2l11.6,9.2l4.8-13.1c-2-1.3-3.2-3.5-3.2-6c0.1-3.8,3.2-6.8,6.9-6.8
				l0.1,0c1.9,0,3.6,0.8,4.9,2.1c1.3,1.3,2,3.1,1.9,4.9c0,2.4-1.3,4.6-3.3,5.8l4.3,13.3l12-8.8c-0.9-2-0.8-4.4,0.3-6.3
				c1.2-2.1,3.5-3.5,6-3.5c1.2,0,2.4,0.3,3.5,0.9c1.6,0.9,2.8,2.4,3.2,4.2c0.5,1.8,0.2,3.7-0.7,5.3c-1.2,2.1-3.4,3.4-5.7,3.5
				L-855.5,73.3z M-869.1,68.6h10.3l3.5-10.1L-869.1,68.6z M-882.4,68.6h10.8l-5.1-15.8L-882.4,68.6z M-894.9,68.6h10.3l-13.7-10.9
				L-894.9,68.6z M-851.5,52.8l0.5,0.2c0.2,0.1,0.4,0.1,0.7,0.1c0.8,0,1.5-0.4,2-1.1c0.3-0.5,0.4-1.1,0.2-1.7
				c-0.2-0.6-0.5-1.1-1.1-1.4c-0.3-0.2-0.7-0.3-1.1-0.3c-0.8,0-1.6,0.4-2,1.1c-0.5,0.9-0.3,2.1,0.4,2.8L-851.5,52.8z M-902.9,47.7
				c-0.4,0-0.7,0.1-1,0.2c-0.5,0.3-0.9,0.7-1.1,1.3c-0.2,0.6-0.1,1.2,0.1,1.7c0.4,0.8,1.2,1.2,2,1.2c0,0,0,0,0,0
				c0.2,0,0.4,0,0.6-0.1l0.5-0.1l0.4-0.4c0.8-0.7,1-1.8,0.5-2.7C-901.3,48.2-902.1,47.7-902.9,47.7z M-876.5,41
				c-1.2,0-2.2,1-2.3,2.2c0,1.1,0.8,2.1,1.9,2.3l0.4,0.1l0.3-0.1c1.1-0.2,1.9-1.1,1.9-2.2c0-0.6-0.2-1.2-0.6-1.6
				C-875.3,41.3-875.9,41-876.5,41L-876.5,41z"/>
		</g>
	</g>
</g>
</svg>
