<?xml version="1.0" encoding="utf-8"?>
<!-- Generator: Adobe Illustrator 18.0.0, SVG Export Plug-In . SVG Version: 6.00 Build 0)  -->
<!DOCTYPE svg PUBLIC "-//W3C//DTD SVG 1.1//EN" "http://www.w3.org/Graphics/SVG/1.1/DTD/svg11.dtd">
<svg version="1.1" id="Capa_1" xmlns="http://www.w3.org/2000/svg" xmlns:xlink="http://www.w3.org/1999/xlink" x="0px" y="0px"
	 viewBox="0 0 180.7 180.7" enable-background="new 0 0 180.7 180.7" xml:space="preserve">
<g>
	<g>
		<path fill="#fff" d="M-834.8,135h-56.9V94.8h-20.1l49.1-49.1l49.1,49.1h-21.3V135z M-885.9,129.2h45.4V89.1h13.1l-35.2-35.2
			l-35.2,35.2h11.9V129.2z"/>
		<path fill="#fff" d="M-834.3,135.5h-57.9V95.3H-913l50.3-50.3l50.3,50.3h-22V135.5z M-891.2,134.5h55.9V94.3h20.6l-47.9-47.9
			l-47.9,47.9h19.4V134.5z M-840.1,129.7h-46.4V89.6H-899l36.4-36.4l36.4,36.4h-13.8V129.7z M-885.4,128.7h44.4V88.6h12.4l-34-34
			l-34,34h11.2V128.7z"/>
	</g>
</g>
<g>
	<g>
		<g>
			<path fill="#fff" d="M-574.8,130.5h-77.8v-2.9c0-16,9.6-30,24-35.9c-5.3-4.4-8.5-11-8.5-18.1c0-12.9,10.5-23.5,23.5-23.5
				c12.9,0,23.5,10.5,23.5,23.5c0,7.1-3.2,13.7-8.5,18.1c14.4,5.9,24,19.9,24,35.9V130.5z M-646.6,124.8h66
				c-1.2-14.3-11.4-26.1-25.6-29.4l-7.4-1.7l-7.4,1.7C-635.2,98.6-645.4,110.5-646.6,124.8z M-613.6,55.9c-9.8,0-17.7,7.9-17.7,17.7
				c0,7.1,4.2,13.5,10.8,16.3l6.9,2.9l6.9-2.9c6.5-2.8,10.8-9.2,10.8-16.3C-595.9,63.9-603.9,55.9-613.6,55.9z"/>
			<path fill="#fff" d="M-574.3,131H-653v-3.4c0-15.8,9.2-29.8,23.5-36.1c-5.2-4.5-8.1-11-8.1-18c0-13.2,10.7-24,24-24
				s24,10.7,24,24c0,6.9-2.9,13.4-8.1,18c14.3,6.2,23.5,20.3,23.5,36V131z M-652,130h76.8v-2.4c0-15.6-9.3-29.5-23.7-35.4l-0.8-0.3
				l0.6-0.5c5.3-4.4,8.4-10.8,8.4-17.7c0-12.7-10.3-23-23-23c-12.7,0-23,10.3-23,23c0,6.9,3,13.3,8.3,17.7l0.6,0.5l-0.8,0.3
				c-14.4,5.9-23.7,19.8-23.7,35.4V130z M-580.1,125.3h-67.1l0-0.5c1.2-14.6,11.7-26.6,26-29.8l7.2-1.6l-6.8-2.9
				c-6.7-2.9-11.1-9.4-11.1-16.7c0-10,8.2-18.2,18.2-18.2s18.2,8.2,18.2,18.2c0,7.3-4.3,13.9-11.1,16.7l-6.7,2.9l7.1,1.6
				c14.3,3.3,24.7,15.3,26,29.8L-580.1,125.3z M-646.1,124.3h64.9c-1.4-13.9-11.5-25.3-25.2-28.4l-7.3-1.7l-7.3,1.7
				C-634.6,99-644.7,110.4-646.1,124.3z M-613.6,56.4c-9.5,0-17.2,7.7-17.2,17.2c0,6.9,4.1,13.1,10.5,15.8l6.7,2.9l6.7-2.9
				c6.4-2.7,10.5-8.9,10.5-15.8C-596.4,64.2-604.2,56.4-613.6,56.4z"/>
		</g>
	</g>
</g>
<g>
	<g>
		<g>
			<rect x="-423.7" y="119.5" fill="#fff" width="76.2" height="8.5"/>
		</g>
	</g>
	<g>
		<g>
			<rect x="-363.2" y="52.7" fill="#fff" width="14.4" height="60.6"/>
		</g>
	</g>
	<g>
		<g>
			<path fill="#fff" d="M-376.1,111.7h-17.1V66.4h17.1V111.7z M-390.5,109h11.6V69.1h-11.6V109z"/>
			<path fill="#fff" d="M-374.6,113.2h-20.1V64.9h20.1V113.2z M-389,107.5h8.6V70.6h-8.6V107.5z"/>
		</g>
	</g>
	<g>
		<g>
			<rect x="-420.6" y="87.9" fill="#fff" width="14.4" height="25.4"/>
		</g>
	</g>
</g>
<g>
	<g>
		<g>
			<g>
				<path fill="#fff" d="M117.2,91H93.5c-1.3,0-2.3-1-2.3-2.3s1-2.3,2.3-2.3h23.8c1.3,0,2.3,1,2.3,2.3S118.5,91,117.2,91z"/>
				<path fill="#fff" d="M117.2,92H93.5c-1.8,0-3.3-1.5-3.3-3.3s1.5-3.3,3.3-3.3h23.8c1.8,0,3.3,1.5,3.3,3.3S119.1,92,117.2,92z
					 M93.5,87.4c-0.7,0-1.3,0.6-1.3,1.3s0.6,1.3,1.3,1.3h23.8c0.7,0,1.3-0.6,1.3-1.3s-0.6-1.3-1.3-1.3H93.5z"/>
			</g>
		</g>
		<g>
			<g>
				<g>
					<path fill="#fff" d="M91.9,106.5c-0.6-0.9-0.3-2,0.6-2.6l23.9-15.2L92.5,73.5c-0.9-0.6-1.1-1.7-0.6-2.6
						c0.6-0.9,1.7-1.1,2.6-0.6l26.4,16.8c0.5,0.3,0.9,0.9,0.9,1.6s-0.3,1.2-0.9,1.6l-26.4,16.8c-0.3,0.2-0.7,0.3-1,0.3
						C92.8,107.4,92.2,107.1,91.9,106.5z"/>
					<path fill="#fff" d="M93.5,108.4c-1,0-1.9-0.5-2.4-1.3c-0.4-0.6-0.5-1.4-0.4-2.1c0.2-0.7,0.6-1.4,1.3-1.8l22.6-14.4
						L91.9,74.3c-0.6-0.4-1.1-1-1.3-1.8c-0.2-0.7,0-1.5,0.4-2.1c0.5-0.8,1.4-1.3,2.4-1.3c0.5,0,1.1,0.2,1.5,0.4l26.4,16.8
						c0.8,0.5,1.3,1.4,1.3,2.4s-0.5,1.9-1.3,2.4L95,107.9C94.5,108.2,94,108.4,93.5,108.4z M93.5,71.1c-0.3,0-0.6,0.1-0.7,0.4
						c-0.1,0.2-0.2,0.4-0.1,0.6c0,0.2,0.2,0.4,0.4,0.5l25.3,16.1L93,104.8c-0.2,0.1-0.3,0.3-0.4,0.5c0,0.2,0,0.4,0.1,0.6
						c0.2,0.4,0.8,0.5,1.2,0.3l26.4-16.8c0.2-0.2,0.4-0.4,0.4-0.7s-0.2-0.6-0.4-0.7L93.9,71.2C93.8,71.1,93.6,71.1,93.5,71.1z"/>
				</g>
			</g>
		</g>
	</g>
	<g>
		<g>
			<polygon fill="#fff" points="105.6,108.8 105.6,124.3 62.5,124.3 62.5,56.4 105.6,56.4 105.6,67.8 108.3,67.8 108.3,53.7 
				59.8,53.7 59.8,127 108.3,127 108.3,108.8 			"/>
			<path fill="#fff" d="M109.3,128H58.8V52.7h50.5v16.1h-4.7V57.4h-41v65.8h41v-15.5h4.7V128z M60.8,126h46.5v-16.2h-0.7v15.5
				h-45V55.4h45v11.4h0.7V54.7H60.8V126z"/>
		</g>
		<g>
			<path fill="#fff" d="M109.1,127.8H59V52.9h50v15.7h-4.3V57.2H63.3v66.3h41.5V108h4.3V127.8z M60.6,126.2h47v-16.7h-1.2V125
				H61.8V55.7h44.6v11.4h1.2V54.5h-47V126.2z"/>
			<polygon fill="#fff" points="110.1,128.8 58,128.8 58,51.9 110.1,51.9 110.1,69.6 103.8,69.6 103.8,58.2 64.3,58.2 
				64.3,122.5 103.8,122.5 103.8,107 110.1,107 			"/>
		</g>
	</g>
</g>
<g>
	<g>
		<g>
			<path fill="#fff" d="M-140.6,133.1c-6.9,0-13-4.3-15.4-10.6h-27.5l1-11.4l2.4-0.8c7.7-2.5,9.3-18.6,9.2-28.6h-0.1l0-2.5
				c0-0.1,0-0.1,0-0.2c0-0.1,0-0.1,0-0.1v-2.2l0.1,0c0.4-6.3,2.5-11.3,6.2-15c3.8-3.8,9.2-6.1,16.3-6.9c0.3-4,3.7-7.1,7.8-7.1
				c4.1,0,7.4,3.1,7.8,7.1c6.8,0.8,12.3,3.2,16.2,7.1c3.7,3.7,5.9,8.7,6.3,14.7l0.1,1.2l0.1,1.4c0,0,0,0.1,0,0.1l-0.1,2.2l0,0.3
				c-0.2,10,1.5,26.1,9.2,28.6l2.4,0.8l1,11.4h-27.5C-127.7,128.8-133.7,133.1-140.6,133.1z M-178,117.5h25.8l0.5,1.9
				c1.2,5.1,5.8,8.7,11.1,8.7c5.3,0,9.8-3.6,11.1-8.7l0.5-1.9h25.8l-0.2-2.7c-12.7-5.1-12-30.6-11.8-35.7l0-0.1l0-0.1
				c-0.1-5.7-1.7-10.3-5-13.5c-3.5-3.5-8.8-5.5-15.6-5.9l-3.2-0.2l1-3.1c0.1-0.3,0.2-0.6,0.2-0.8c0-1.5-1.2-2.8-2.8-2.8
				s-2.8,1.2-2.8,2.8c0,0.2,0.1,0.5,0.2,0.9l1,3.1l-3.3,0.2c-7.2,0.4-12.3,2.3-15.7,5.6c-3.2,3.1-4.8,7.8-4.8,13.7l0,0.1l0,0.1
				c0.3,5.1,1,30.6-11.8,35.7L-178,117.5z"/>
			<path fill="#fff" d="M-140.6,134.1c-7,0-13.3-4.2-16-10.6h-27.9l1.2-13.1l3-1c6.4-2.1,8.6-15.4,8.5-26.6h0l-0.1-1l0-2.5
				c0-0.1,0-0.2,0-0.3l0-0.1v-3.1l0.2,0c0.6-6.1,2.8-11.1,6.5-14.8c3.9-3.9,9.1-6.2,16.1-7.1c0.7-4.1,4.4-7.2,8.7-7.2
				c4.3,0,7.9,3.1,8.6,7.2c6.7,0.9,12.1,3.4,16,7.3c3.9,3.9,6.1,9.1,6.6,15.4l0.1,2.7l-0.1,2.6c-0.2,11.4,1.9,25.5,8.5,27.6l3,1
				l1.2,13.1h-27.9C-127.3,129.9-133.7,134.1-140.6,134.1z M-182.4,121.5h27.1l0.2,0.6c2.3,6.1,7.9,10,14.4,10
				c6.5,0,12.1-3.9,14.4-10l0.2-0.6h27.1l-0.9-9.6l-1.7-0.6c-9.8-3.2-9.9-25.2-9.9-29.6l0.1-2.5l-0.1-2.6c-0.5-5.8-2.5-10.5-6-14.1
				c-3.8-3.7-9-6-15.6-6.8l-0.8-0.1l-0.1-0.8c-0.3-3.5-3.3-6.2-6.8-6.2c-3.5,0-6.5,2.7-6.8,6.2l-0.1,0.8l-0.8,0.1
				c-6.9,0.8-12,2.9-15.7,6.6c-3.5,3.5-5.5,8.3-5.9,14.4l-0.1,0.8l0,3.3l0.1,0.9c0.1,4.4,0,26.4-9.8,29.6l-1.7,0.6L-182.4,121.5z
				 M-140.6,129.1c-5.7,0-10.7-3.9-12-9.5l-0.3-1.2h-26.1l0.4-4.4l0.6-0.2c12.1-4.9,11.4-29.8,11.1-34.7l0-0.2l0-0.1
				c0.1-6.2,1.8-11.1,5.1-14.4c3.6-3.5,8.9-5.5,16.3-5.9l2-0.1l-0.6-1.9c-0.1-0.4-0.2-0.8-0.2-1.2c0-2.1,1.7-3.8,3.8-3.8
				s3.8,1.7,3.8,3.8c0,0.3-0.1,0.7-0.2,1.1l-0.6,1.8l1.9,0.1c7.1,0.4,12.5,2.5,16.2,6.2c3.4,3.4,5.2,8.2,5.3,14.2l0,0.2
				c-0.3,5-1,29.9,11.1,34.7l0.6,0.2l0.4,4.4h-26.1l-0.3,1.2C-130,125.2-134.9,129.1-140.6,129.1z M-176.9,116.5h25.5l0.6,2.7
				c1.1,4.7,5.3,8,10.1,8c4.8,0,9-3.3,10.1-8l0.6-2.7h25.5l-0.1-1c-12.8-5.9-12.1-31.3-11.8-36.4l0-0.1c-0.1-5.5-1.6-9.8-4.7-12.8
				c-3.3-3.3-8.4-5.2-14.9-5.6l-4.5-0.3l1.4-4.3c0.1-0.2,0.1-0.4,0.1-0.5c0-1-0.8-1.8-1.8-1.8s-1.8,0.8-1.8,1.8c0,0.1,0,0.3,0.1,0.5
				l1.4,4.3l-4.5,0.3c-6.9,0.4-11.8,2.2-15,5.3c-3,3-4.5,7.3-4.6,13l0,0.1c0.3,5.1,1,30.6-11.8,36.5L-176.9,116.5z"/>
		</g>
	</g>
</g>
<g>
	<g>
		<path fill="#fff" d="M262.6,58.1v64.4h69.5V58.1H262.6z M266.4,118.8V77h61.9v41.7H266.4z"/>
		<path fill="#fff" d="M333.1,123.6h-71.5V57.1h71.5V123.6z M263.6,121.6h67.5V59.1h-67.5V121.6z M329.3,119.8h-63.9V76h63.9
			V119.8z M267.4,117.8h59.9V78h-59.9V117.8z"/>
	</g>
	<g>
		<rect x="303.2" y="94.7" fill="#fff" width="16.8" height="16.8"/>
		<path fill="#fff" d="M321,112.4h-18.8V93.7H321V112.4z M304.2,110.4H319V95.7h-14.8V110.4z"/>
	</g>
</g>
<g>
	<g>
		<g>
			<g>
				<g>
					<path fill="#fff" d="M-1076.4,80.8h-62.6c-0.9,0-1.7-0.8-1.7-1.7c0-0.9,0.8-1.7,1.7-1.7h62.6c0.9,0,1.7,0.8,1.7,1.7
						C-1074.7,80.1-1075.4,80.8-1076.4,80.8z"/>
				</g>
				<g>
					<path fill="#fff" d="M-1076.4,81.9h-62.6c-1.5,0-2.8-1.2-2.8-2.8c0-1.5,1.2-2.8,2.8-2.8h62.6c1.5,0,2.8,1.2,2.8,2.8
						C-1073.6,80.6-1074.8,81.9-1076.4,81.9z M-1138.9,78.5c-0.3,0-0.6,0.3-0.6,0.6s0.3,0.6,0.6,0.6h62.6c0.3,0,0.6-0.3,0.6-0.6
						s-0.3-0.6-0.6-0.6H-1138.9z"/>
				</g>
			</g>
		</g>
		<g>
			<g>
				<g>
					<path fill="#fff" d="M-1060.4,98h-94.4c-0.9,0-1.7-0.8-1.7-1.7c0-0.9,0.8-1.7,1.7-1.7h94.4c0.9,0,1.7,0.8,1.7,1.7
						C-1058.7,97.2-1059.5,98-1060.4,98z"/>
				</g>
				<g>
					<path fill="#fff" d="M-1060.4,99.1h-94.4c-1.5,0-2.8-1.2-2.8-2.8c0-1.5,1.2-2.8,2.8-2.8h94.4c1.5,0,2.8,1.2,2.8,2.8
						C-1057.7,97.8-1058.9,99.1-1060.4,99.1z M-1154.9,95.7c-0.3,0-0.6,0.3-0.6,0.6s0.3,0.6,0.6,0.6h94.4c0.3,0,0.6-0.3,0.6-0.6
						s-0.3-0.6-0.6-0.6H-1154.9z"/>
				</g>
			</g>
		</g>
		<g>
			<g>
				<g>
					<path fill="#fff" d="M-1107.6,143.3c-0.4,0-0.8-0.2-1.2-0.5l-47.2-45.3c-0.7-0.6-0.7-1.7,0-2.4c0.7-0.7,1.7-0.7,2.4,0
						l47.2,45.3c0.7,0.6,0.7,1.7,0,2.4C-1106.8,143.1-1107.2,143.3-1107.6,143.3z"/>
				</g>
				<g>
					<path fill="#fff" d="M-1107.6,144.4c-0.7,0-1.4-0.3-1.9-0.8l-47.2-45.3c-1.1-1.1-1.1-2.8-0.1-3.9c1-1.1,2.8-1.1,3.9-0.1
						l47.2,45.3c1.1,1.1,1.1,2.8,0.1,3.9C-1106.2,144.1-1106.9,144.4-1107.6,144.4z M-1154.9,95.7c-0.2,0-0.3,0.1-0.5,0.2
						c-0.2,0.3-0.2,0.7,0,0.9l47.2,45.3c0.4,0.4,0.7,0.2,0.9,0c0.2-0.3,0.2-0.7,0-0.9l-47.2-45.3
						C-1154.5,95.7-1154.7,95.7-1154.9,95.7z"/>
				</g>
			</g>
		</g>
		<g>
			<g>
				<g>
					<path fill="#fff" d="M-1107.6,143.3c-0.4,0-0.9-0.2-1.2-0.5c-0.6-0.7-0.6-1.7,0-2.4l47.2-45.3c0.7-0.7,1.7-0.6,2.4,0
						c0.6,0.7,0.6,1.7,0,2.4l-47.2,45.3C-1106.8,143.2-1107.2,143.3-1107.6,143.3z"/>
				</g>
				<g>
					<path fill="#fff" d="M-1107.6,144.4c-0.8,0-1.5-0.3-2-0.8c-0.5-0.5-0.8-1.2-0.8-2c0-0.7,0.3-1.4,0.8-1.9l47.2-45.3
						c1.1-1,2.9-1,3.9,0.1c1.1,1.1,1,2.8-0.1,3.9l-47.2,45.3C-1106.2,144.1-1106.9,144.4-1107.6,144.4z M-1060.4,95.7
						c-0.2,0-0.3,0.1-0.4,0.2l-47.2,45.3c-0.1,0.1-0.2,0.3-0.2,0.4c0,0.2,0.1,0.3,0.2,0.4c0.1,0.1,0.3,0.2,0.5,0.2
						c0.1,0,0.3,0,0.4-0.2l47.2-45.3c0.3-0.2,0.3-0.6,0-0.9C-1060.1,95.7-1060.2,95.7-1060.4,95.7z"/>
				</g>
			</g>
		</g>
		<g>
			<g>
				<g>
					<path fill="#fff" d="M-1107.6,143.3c-0.7,0-1.4-0.4-1.6-1.1l-15.5-45.3c-0.3-0.9,0.2-1.9,1.1-2.2c0.9-0.3,1.9,0.2,2.2,1.1
						l15.5,45.3c0.3,0.9-0.2,1.9-1.1,2.2C-1107.3,143.3-1107.5,143.3-1107.6,143.3z"/>
				</g>
				<g>
					<path fill="#fff" d="M-1107.6,144.4c-1.2,0-2.2-0.8-2.6-1.9l-15.5-45.3c-0.5-1.4,0.3-3,1.7-3.5c0.3-0.1,0.6-0.2,0.9-0.2
						c1.2,0,2.2,0.8,2.6,1.9l15.5,45.3c0.2,0.7,0.2,1.4-0.1,2.1c-0.3,0.7-0.9,1.2-1.6,1.4C-1107,144.3-1107.3,144.4-1107.6,144.4z
						 M-1123.2,95.7c-0.1,0-0.1,0-0.2,0c-0.2,0.1-0.3,0.2-0.4,0.3s-0.1,0.3,0,0.5l15.5,45.3c0.1,0.3,0.5,0.5,0.8,0.4
						c0.3-0.1,0.5-0.5,0.4-0.8l-15.5-45.3C-1122.7,95.8-1122.9,95.7-1123.2,95.7z"/>
				</g>
			</g>
		</g>
		<g>
			<g>
				<g>
					<path fill="#fff" d="M-1107.6,143.3c-0.2,0-0.4,0-0.5-0.1c-0.9-0.3-1.4-1.3-1.1-2.2l15.5-45.3c0.3-0.9,1.3-1.4,2.2-1.1
						c0.9,0.3,1.4,1.3,1.1,2.2l-15.5,45.3C-1106.3,142.9-1106.9,143.3-1107.6,143.3z"/>
				</g>
				<g>
					<path fill="#fff" d="M-1107.6,144.4c-0.3,0-0.6-0.1-0.9-0.2c-0.7-0.2-1.3-0.7-1.6-1.4c-0.3-0.7-0.4-1.4-0.1-2.1l15.5-45.3
						c0.4-1.1,1.4-1.9,2.6-1.9c0.3,0,0.6,0.1,0.9,0.2c1.4,0.5,2.2,2.1,1.7,3.5l-15.5,45.3C-1105.4,143.6-1106.5,144.4-1107.6,144.4z
						 M-1092.1,95.7c-0.3,0-0.5,0.2-0.6,0.4l-15.5,45.3c-0.1,0.2,0,0.3,0,0.5s0.2,0.3,0.4,0.3c0.4,0.1,0.7-0.1,0.8-0.4l15.5-45.3
						c0.1-0.3-0.1-0.7-0.4-0.8C-1092,95.7-1092,95.7-1092.1,95.7z"/>
				</g>
			</g>
		</g>
		<g>
			<g>
				<g>
					<path fill="#fff" d="M-1154.9,98c-0.4,0-0.8-0.1-1.2-0.5c-0.7-0.6-0.7-1.7-0.1-2.4l15.9-17.2c0.6-0.7,1.7-0.7,2.4-0.1
						c0.7,0.6,0.7,1.7,0.1,2.4l-15.9,17.2C-1154,97.8-1154.4,98-1154.9,98z"/>
				</g>
				<g>
					<path fill="#fff" d="M-1154.9,99.1c-0.7,0-1.4-0.3-1.9-0.7c-1.1-1-1.2-2.8-0.1-3.9l15.9-17.2c1-1.1,2.8-1.1,3.9-0.1
						c1.1,1,1.2,2.8,0.1,3.9l-15.9,17.2C-1153.4,98.7-1154.1,99.1-1154.9,99.1z M-1138.9,78.5c-0.1,0-0.3,0-0.5,0.2l-15.9,17.2
						c-0.2,0.3-0.2,0.7,0,0.9c0.1,0.1,0.3,0.2,0.4,0.2c0.1,0,0.3,0,0.5-0.2l15.9-17.2c0.2-0.3,0.2-0.7,0-0.9
						C-1138.6,78.6-1138.8,78.5-1138.9,78.5z"/>
				</g>
			</g>
		</g>
		<g>
			<g>
				<g>
					<path fill="#fff" d="M-1060.4,98c-0.5,0-0.9-0.2-1.2-0.5l-15.9-17.2c-0.6-0.7-0.6-1.8,0.1-2.4c0.7-0.6,1.8-0.6,2.4,0.1
						l15.9,17.2c0.6,0.7,0.6,1.8-0.1,2.4C-1059.6,97.8-1060,98-1060.4,98z"/>
				</g>
				<g>
					<path fill="#fff" d="M-1060.4,99.1c-0.8,0-1.5-0.3-2-0.9l-15.9-17.2c-1-1.1-1-2.9,0.1-3.9c1.1-1,2.9-0.9,3.9,0.1l15.9,17.2
						c1,1.1,1,2.9-0.1,3.9C-1059,98.8-1059.7,99.1-1060.4,99.1z M-1076.4,78.5c-0.2,0-0.3,0.1-0.4,0.2c-0.3,0.2-0.3,0.6,0,0.9
						l15.9,17.2c0.2,0.2,0.4,0.2,0.5,0.2c0.1,0,0.3,0,0.4-0.2c0.3-0.2,0.3-0.6,0-0.9l-15.9-17.2
						C-1076.1,78.5-1076.3,78.5-1076.4,78.5z"/>
				</g>
			</g>
		</g>
		<g>
			<g>
				<g>
					<path fill="#fff" d="M-1123.2,98c-0.5,0-0.9-0.2-1.3-0.5l-15.7-17.2c-0.6-0.7-0.6-1.8,0.1-2.4c0.7-0.6,1.8-0.6,2.4,0.1
						l15.7,17.2c0.6,0.7,0.6,1.8-0.1,2.4C-1122.4,97.8-1122.8,98-1123.2,98z"/>
				</g>
				<g>
					<path fill="#fff" d="M-1123.2,99.1c-0.8,0-1.5-0.3-2-0.9L-1141,81c-0.5-0.5-0.8-1.3-0.7-2c0-0.7,0.4-1.4,0.9-1.9
						c1.1-1,2.9-0.9,3.9,0.2l15.7,17.2c0.5,0.5,0.8,1.3,0.7,2c0,0.7-0.4,1.4-0.9,1.9C-1121.8,98.8-1122.5,99.1-1123.2,99.1z
						 M-1138.9,78.5c-0.2,0-0.3,0.1-0.4,0.2c-0.1,0.1-0.2,0.3-0.2,0.4c0,0.2,0.1,0.3,0.2,0.5l15.7,17.2c0.2,0.2,0.5,0.4,0.9,0
						c0.1-0.1,0.2-0.3,0.2-0.4c0-0.2-0.1-0.3-0.2-0.5l-15.7-17.2C-1138.6,78.5-1138.8,78.5-1138.9,78.5z"/>
				</g>
			</g>
		</g>
		<g>
			<g>
				<g>
					<path fill="#fff" d="M-1092.1,98c-0.4,0-0.8-0.1-1.1-0.4c-0.7-0.6-0.7-1.7-0.1-2.4l15.7-17.2c0.6-0.7,1.7-0.7,2.4-0.1
						c0.7,0.6,0.7,1.7,0.1,2.4l-15.7,17.2C-1091.2,97.8-1091.7,98-1092.1,98z"/>
				</g>
				<g>
					<path fill="#fff" d="M-1092.1,99.1c-0.7,0-1.4-0.3-1.9-0.7c-0.5-0.5-0.9-1.2-0.9-1.9c0-0.7,0.2-1.4,0.7-2l15.7-17.2
						c1-1.1,2.8-1.2,3.9-0.2c0.5,0.5,0.9,1.2,0.9,1.9c0,0.7-0.2,1.4-0.7,2l-15.7,17.2C-1090.6,98.7-1091.3,99.1-1092.1,99.1z
						 M-1076.4,78.5c-0.1,0-0.3,0-0.5,0.2l-15.7,17.2c-0.1,0.1-0.2,0.3-0.2,0.5c0,0.2,0.1,0.3,0.2,0.4c0.4,0.4,0.7,0.2,0.9,0
						l15.7-17.2c0.1-0.1,0.2-0.3,0.2-0.5s-0.1-0.3-0.2-0.4C-1076.1,78.6-1076.2,78.5-1076.4,78.5z"/>
				</g>
			</g>
		</g>
		<g>
			<g>
				<g>
					<path fill="#fff" d="M-1123.2,98c-0.4,0-0.8-0.1-1.1-0.4c-0.7-0.6-0.7-1.7-0.1-2.4l15.7-17.2c0.6-0.7,1.7-0.7,2.4-0.1
						c0.7,0.6,0.7,1.7,0.1,2.4l-15.7,17.2C-1122.3,97.8-1122.7,98-1123.2,98z"/>
				</g>
				<g>
					<path fill="#fff" d="M-1123.2,99.1c-0.7,0-1.4-0.3-1.9-0.7c-1.1-1-1.2-2.8-0.2-3.9l15.8-17.2c1-1.1,2.8-1.2,3.9-0.2
						c1.1,1,1.2,2.8,0.2,3.9l-15.8,17.2C-1121.7,98.7-1122.4,99.1-1123.2,99.1z M-1107.4,78.5c-0.1,0-0.3,0-0.5,0.2l-15.7,17.2
						c-0.2,0.3-0.2,0.7,0,0.9c0.4,0.3,0.7,0.2,0.9,0l15.7-17.2c0.2-0.3,0.2-0.7,0-0.9C-1107.1,78.6-1107.3,78.5-1107.4,78.5z"/>
				</g>
			</g>
		</g>
		<g>
			<g>
				<g>
					<path fill="#fff" d="M-1092.1,98c-0.5,0-0.9-0.2-1.3-0.5l-15.7-17.2c-0.6-0.7-0.6-1.8,0.1-2.4c0.7-0.6,1.8-0.6,2.4,0.1
						l15.7,17.2c0.6,0.7,0.6,1.8-0.1,2.4C-1091.3,97.8-1091.7,98-1092.1,98z"/>
				</g>
				<g>
					<path fill="#fff" d="M-1092.1,99.1c-0.8,0-1.5-0.3-2-0.9l-15.7-17.2c-0.5-0.5-0.8-1.3-0.7-2c0-0.7,0.4-1.4,0.9-1.9
						c1.1-1,2.9-0.9,3.9,0.2l15.7,17.2c0.5,0.5,0.8,1.3,0.7,2c0,0.7-0.4,1.4-0.9,1.9C-1090.8,98.8-1091.4,99.1-1092.1,99.1z
						 M-1107.9,78.5c-0.2,0-0.3,0.1-0.4,0.2c-0.1,0.1-0.2,0.3-0.2,0.4c0,0.2,0.1,0.3,0.2,0.5l15.7,17.2c0.2,0.3,0.6,0.3,0.9,0
						c0.1-0.1,0.2-0.3,0.2-0.4c0-0.2-0.1-0.3-0.2-0.5l-15.7-17.2C-1107.6,78.5-1107.8,78.5-1107.9,78.5z"/>
				</g>
			</g>
		</g>
	</g>
	<g>
		<g>
			<path fill="#fff" d="M-1086.5,73.3h-42.9l-5.1-16.4c-2.4-0.2-4.6-1.6-5.7-3.8c-0.8-1.7-1-3.5-0.4-5.3c0.6-1.8,1.8-3.2,3.5-4
				c1-0.5,2.1-0.8,3.2-0.8c2.6,0,5,1.5,6.2,3.8c1,2,1,4.2,0.1,6.2l11.6,9.2l4.8-13.1c-2-1.3-3.2-3.5-3.2-6c0.1-3.8,3.2-6.8,6.9-6.8
				l0.1,0c1.9,0,3.6,0.8,4.9,2.1c1.3,1.3,2,3.1,1.9,4.9c0,2.4-1.3,4.6-3.3,5.8l4.3,13.3l12-8.8c-0.9-2-0.8-4.4,0.3-6.3
				c1.2-2.1,3.5-3.5,6-3.5c1.2,0,2.4,0.3,3.5,0.9c1.6,0.9,2.8,2.4,3.2,4.2c0.5,1.8,0.2,3.7-0.7,5.3c-1.2,2.1-3.4,3.4-5.7,3.5
				L-1086.5,73.3z M-1100.1,68.6h10.3l3.5-10.1L-1100.1,68.6z M-1113.4,68.6h10.8l-5.1-15.8L-1113.4,68.6z M-1125.9,68.6h10.3
				l-13.7-10.9L-1125.9,68.6z M-1082.5,52.8l0.5,0.2c0.2,0.1,0.4,0.1,0.7,0.1c0.8,0,1.5-0.4,2-1.1c0.3-0.5,0.4-1.1,0.2-1.7
				c-0.2-0.6-0.5-1.1-1.1-1.4c-0.3-0.2-0.7-0.3-1.1-0.3c-0.8,0-1.6,0.4-2,1.1c-0.5,0.9-0.3,2.1,0.4,2.8L-1082.5,52.8z M-1133.9,47.7
				c-0.4,0-0.7,0.1-1,0.2c-0.5,0.3-0.9,0.7-1.1,1.3c-0.2,0.6-0.1,1.2,0.1,1.7c0.4,0.8,1.2,1.2,2,1.2c0,0,0,0,0,0
				c0.2,0,0.4,0,0.6-0.1l0.5-0.1l0.4-0.4c0.8-0.7,1-1.8,0.5-2.7C-1132.3,48.2-1133.1,47.7-1133.9,47.7z M-1107.5,41
				c-1.2,0-2.2,1-2.3,2.2c0,1.1,0.8,2.1,1.9,2.3l0.4,0.1l0.3-0.1c1.1-0.2,1.9-1.1,1.9-2.2c0-0.6-0.2-1.2-0.6-1.6
				C-1106.3,41.3-1106.9,41-1107.5,41L-1107.5,41z"/>
		</g>
	</g>
</g>
</svg>
